<?xml version="1.0" encoding="UTF-8"?>
<!DOCTYPE svg PUBLIC "-//W3C//DTD SVG 1.1//EN" "http://www.w3.org/Graphics/SVG/1.1/DTD/svg11.dtd">
<svg xmlns="http://www.w3.org/2000/svg" version="1.1" width="500px" height="500px" style="shape-rendering:geometricPrecision; text-rendering:geometricPrecision; image-rendering:optimizeQuality; fill-rule:evenodd; clip-rule:evenodd" xmlns:xlink="http://www.w3.org/1999/xlink">
<g><path style="opacity:1" fill="#7faedb" d="M 203.5,143.5 C 216.504,143.333 229.504,143.5 242.5,144C 243.416,144.278 244.082,144.778 244.5,145.5C 234.873,144.579 225.206,144.245 215.5,144.5C 211.298,144.817 207.298,144.483 203.5,143.5 Z"/></g>
<g><path style="opacity:1" fill="#a2525b" d="M 313.5,145.5 C 311.62,145.229 310.287,145.896 309.5,147.5C 305.85,145.045 301.85,143.211 297.5,142C 297.335,140.883 297.002,139.716 296.5,138.5C 297,138.167 297.5,137.833 298,137.5C 303.165,140.331 308.332,142.998 313.5,145.5 Z"/></g>
<g><path style="opacity:1" fill="#244b98" d="M 203.5,143.5 C 207.298,144.483 211.298,144.817 215.5,144.5C 219.312,145.324 223.312,145.824 227.5,146C 230.426,146.687 231.759,148.52 231.5,151.5C 227.618,151.959 225.618,150.626 225.5,147.5C 224.167,148.167 222.833,148.833 221.5,149.5C 212.888,148.529 204.221,148.196 195.5,148.5C 186.779,148.495 178.112,147.828 169.5,146.5C 168.558,146.608 167.725,146.941 167,147.5C 163.942,146.237 160.775,145.237 157.5,144.5C 157.833,144.167 158.167,143.833 158.5,143.5C 173.38,143.447 188.38,143.447 203.5,143.5 Z"/></g>
<g><path style="opacity:1" fill="#1c5fae" d="M 215.5,144.5 C 225.206,144.245 234.873,144.579 244.5,145.5C 244.414,146.496 244.748,147.329 245.5,148C 244.643,148.689 243.977,149.522 243.5,150.5C 245.231,151.343 247.065,151.343 249,150.5C 249.833,150.833 250.667,151.167 251.5,151.5C 250.359,152.425 250.359,153.259 251.5,154C 253.587,153.782 255.587,153.949 257.5,154.5C 254.154,156.397 251.154,158.73 248.5,161.5C 247.167,162.5 247.167,163.5 248.5,164.5C 245.694,165.168 243.028,165.834 240.5,166.5C 235.403,170.225 230.07,173.725 224.5,177C 221.691,178.741 218.691,179.908 215.5,180.5C 215.351,179.448 215.517,178.448 216,177.5C 217.135,177.273 218.302,176.94 219.5,176.5C 218.05,175.15 217.383,173.484 217.5,171.5C 218.5,171.5 219.5,171.5 220.5,171.5C 220.281,172.675 220.614,173.675 221.5,174.5C 223.14,172.161 225.14,171.328 227.5,172C 225.971,169.264 224.471,169.098 223,171.5C 222.833,171 222.667,170.5 222.5,170C 223.765,168.344 225.099,166.677 226.5,165C 225.5,164.167 224.5,163.333 223.5,162.5C 224.167,161.833 224.833,161.167 225.5,160.5C 218.862,156.397 211.862,155.564 204.5,158C 205.5,158.333 206.5,158.667 207.5,159C 207.167,159.333 206.833,159.667 206.5,160C 207.639,161.78 208.639,163.614 209.5,165.5C 207.833,165.5 206.167,165.5 204.5,165.5C 194.555,163.505 184.555,161.838 174.5,160.5C 184.488,161.38 194.488,161.547 204.5,161C 204.833,160.667 205.167,160.333 205.5,160C 204.167,159.333 202.833,158.667 201.5,158C 201.833,157.667 202.167,157.333 202.5,157C 190.326,156.831 178.326,156.331 166.5,155.5C 184.007,155.574 201.34,155.407 218.5,155C 221.177,154.751 223.51,153.751 225.5,152C 215.326,151.043 205.326,149.876 195.5,148.5C 204.221,148.196 212.888,148.529 221.5,149.5C 222.833,148.833 224.167,148.167 225.5,147.5C 225.618,150.626 227.618,151.959 231.5,151.5C 231.759,148.52 230.426,146.687 227.5,146C 223.312,145.824 219.312,145.324 215.5,144.5 Z"/></g>
<g><path style="opacity:1" fill="#0c3395" d="M 294.5,146.5 C 296.359,146.461 297.692,147.294 298.5,149C 296.82,149.347 295.82,150.347 295.5,152C 301.71,157.861 300.71,161.694 292.5,163.5C 293.167,167.5 291.5,169.167 287.5,168.5C 287.5,169.5 287.5,170.5 287.5,171.5C 284.017,171.691 280.684,172.357 277.5,173.5C 277.5,174.5 277.5,175.5 277.5,176.5C 276.167,176.5 274.833,176.5 273.5,176.5C 273.5,177.5 273.5,178.5 273.5,179.5C 269.094,180.204 264.76,181.204 260.5,182.5C 260.241,186.068 258.241,187.401 254.5,186.5C 254.5,187.5 254.5,188.5 254.5,189.5C 252.194,189.007 249.861,188.674 247.5,188.5C 242.723,185.94 238.056,183.107 233.5,180C 250.537,168.813 268.203,158.647 286.5,149.5C 288.391,148.464 290.224,148.464 292,149.5C 294.102,148.88 294.935,147.88 294.5,146.5 Z"/></g>
<g><path style="opacity:1" fill="#013192" d="M 165.5,155.5 C 165.833,155.5 166.167,155.5 166.5,155.5C 178.326,156.331 190.326,156.831 202.5,157C 202.167,157.333 201.833,157.667 201.5,158C 202.833,158.667 204.167,159.333 205.5,160C 205.167,160.333 204.833,160.667 204.5,161C 194.488,161.547 184.488,161.38 174.5,160.5C 174.167,160.5 173.833,160.5 173.5,160.5C 169.482,159.837 165.482,158.67 161.5,157C 163.058,156.79 164.391,156.29 165.5,155.5 Z"/></g>
<g><path style="opacity:1" fill="#2a7bba" d="M 244.5,145.5 C 251.756,148.308 258.422,152.141 264.5,157C 258.917,161.711 252.751,165.545 246,168.5C 244.275,167.536 242.441,166.869 240.5,166.5C 243.028,165.834 245.694,165.168 248.5,164.5C 247.167,163.5 247.167,162.5 248.5,161.5C 251.154,158.73 254.154,156.397 257.5,154.5C 255.587,153.949 253.587,153.782 251.5,154C 250.359,153.259 250.359,152.425 251.5,151.5C 250.667,151.167 249.833,150.833 249,150.5C 247.065,151.343 245.231,151.343 243.5,150.5C 243.977,149.522 244.643,148.689 245.5,148C 244.748,147.329 244.414,146.496 244.5,145.5 Z"/></g>
<g><path style="opacity:1" fill="#30468c" d="M 165.5,155.5 C 164.391,156.29 163.058,156.79 161.5,157C 165.482,158.67 169.482,159.837 173.5,160.5C 160.408,159.715 147.408,158.215 134.5,156C 135.766,155.691 136.933,155.191 138,154.5C 146.74,154.983 155.907,155.317 165.5,155.5 Z"/></g>
<g><path style="opacity:1" fill="#0a47a1" d="M 215.5,180.5 C 212.35,183.579 208.683,185.913 204.5,187.5C 206.112,185.702 207.612,183.702 209,181.5C 210.826,182.841 211.993,182.341 212.5,180C 212.05,178.715 211.383,177.548 210.5,176.5C 211.614,172.725 211.281,169.058 209.5,165.5C 208.639,163.614 207.639,161.78 206.5,160C 206.833,159.667 207.167,159.333 207.5,159C 206.5,158.667 205.5,158.333 204.5,158C 211.862,155.564 218.862,156.397 225.5,160.5C 224.833,161.167 224.167,161.833 223.5,162.5C 224.5,163.333 225.5,164.167 226.5,165C 225.099,166.677 223.765,168.344 222.5,170C 222.667,170.5 222.833,171 223,171.5C 224.471,169.098 225.971,169.264 227.5,172C 225.14,171.328 223.14,172.161 221.5,174.5C 220.614,173.675 220.281,172.675 220.5,171.5C 219.5,171.5 218.5,171.5 217.5,171.5C 217.383,173.484 218.05,175.15 219.5,176.5C 218.302,176.94 217.135,177.273 216,177.5C 215.517,178.448 215.351,179.448 215.5,180.5 Z"/></g>
<g><path style="opacity:1" fill="#0e4aa5" d="M 294.5,146.5 C 295.601,145.402 296.934,145.235 298.5,146C 301.053,148.394 303.719,150.561 306.5,152.5C 305.5,153.167 304.5,153.833 303.5,154.5C 305.389,155.604 307.055,156.937 308.5,158.5C 308,159.5 307.5,160.5 307,161.5C 306.667,161.167 306.333,160.833 306,160.5C 305.057,164.719 306.557,166.385 310.5,165.5C 311.604,166.631 311.271,167.465 309.5,168C 312.612,168.851 312.946,170.017 310.5,171.5C 306.868,168.848 302.868,167.181 298.5,166.5C 294.618,167.722 290.951,169.388 287.5,171.5C 287.5,170.5 287.5,169.5 287.5,168.5C 291.5,169.167 293.167,167.5 292.5,163.5C 300.71,161.694 301.71,157.861 295.5,152C 295.82,150.347 296.82,149.347 298.5,149C 297.692,147.294 296.359,146.461 294.5,146.5 Z"/></g>
<g><path style="opacity:1" fill="#4a5679" d="M 127.5,168.5 C 124.15,168.335 120.817,168.502 117.5,169C 118.056,169.383 118.389,169.883 118.5,170.5C 114.727,170.737 111.06,170.237 107.5,169C 114.278,167.321 120.944,167.154 127.5,168.5 Z"/></g>
<g><path style="opacity:1" fill="#374a8b" d="M 203.5,165.5 C 203.5,166.5 203.5,167.5 203.5,168.5C 181.709,168.966 160.042,169.8 138.5,171C 141.984,172.132 145.651,172.632 149.5,172.5C 153.084,172.482 156.584,172.148 160,171.5C 167.466,174.192 175.299,175.692 183.5,176C 183.136,178.518 181.969,181.018 180,183.5C 179.196,207.864 179.363,232.197 180.5,256.5C 179.542,256.047 178.708,255.381 178,254.5C 177.333,229.5 177.333,204.5 178,179.5C 179.067,178.809 180.234,178.309 181.5,178C 160.324,175.727 139.324,173.227 118.5,170.5C 118.389,169.883 118.056,169.383 117.5,169C 120.817,168.502 124.15,168.335 127.5,168.5C 150.343,168.608 173.343,168.442 196.5,168C 199.06,167.616 201.394,166.783 203.5,165.5 Z"/></g>
<g><path style="opacity:1" fill="#195eaf" d="M 313.5,152.5 C 313.238,153.978 313.571,155.311 314.5,156.5C 319.856,157.397 322.522,160.564 322.5,166C 324.047,166.333 325.38,165.833 326.5,164.5C 328.149,165.648 329.649,166.981 331,168.5C 331.671,167.748 332.504,167.414 333.5,167.5C 332.766,168.708 332.433,170.041 332.5,171.5C 327.89,171.596 327.556,172.596 331.5,174.5C 331,174.833 330.5,175.167 330,175.5C 324.844,172.661 324.344,173.328 328.5,177.5C 328.135,178.902 327.301,179.902 326,180.5C 323.79,178.889 321.29,178.222 318.5,178.5C 311.162,175.503 304.495,171.503 298.5,166.5C 302.868,167.181 306.868,168.848 310.5,171.5C 312.946,170.017 312.612,168.851 309.5,168C 311.271,167.465 311.604,166.631 310.5,165.5C 306.557,166.385 305.057,164.719 306,160.5C 306.333,160.833 306.667,161.167 307,161.5C 307.5,160.5 308,159.5 308.5,158.5C 307.055,156.937 305.389,155.604 303.5,154.5C 304.5,153.833 305.5,153.167 306.5,152.5C 303.719,150.561 301.053,148.394 298.5,146C 296.934,145.235 295.601,145.402 294.5,146.5C 294.935,147.88 294.102,148.88 292,149.5C 290.224,148.464 288.391,148.464 286.5,149.5C 286.953,148.542 287.619,147.708 288.5,147C 291.526,146.31 294.359,145.143 297,143.5C 302.631,146.306 308.131,149.306 313.5,152.5 Z"/></g>
<g><path style="opacity:1" fill="#4a5897" d="M 287.5,171.5 C 283.167,174.669 278.5,177.336 273.5,179.5C 273.5,178.5 273.5,177.5 273.5,176.5C 274.833,176.5 276.167,176.5 277.5,176.5C 277.5,175.5 277.5,174.5 277.5,173.5C 280.684,172.357 284.017,171.691 287.5,171.5 Z"/></g>
<g><path style="opacity:1" fill="#0e3495" d="M 203.5,165.5 C 203.833,165.5 204.167,165.5 204.5,165.5C 206.167,165.5 207.833,165.5 209.5,165.5C 211.281,169.058 211.614,172.725 210.5,176.5C 211.383,177.548 212.05,178.715 212.5,180C 211.993,182.341 210.826,182.841 209,181.5C 207.612,183.702 206.112,185.702 204.5,187.5C 202.492,189.268 200.326,190.934 198,192.5C 197.333,209.167 197.333,225.833 198,242.5C 205.681,247.079 213.181,251.746 220.5,256.5C 220.5,257.5 220.5,258.5 220.5,259.5C 222.199,259.34 223.866,259.506 225.5,260C 228.547,262.012 230.213,264.845 230.5,268.5C 228.863,269.403 227.029,269.403 225,268.5C 221.804,266.569 218.471,264.902 215,263.5C 214.586,263.957 214.086,264.291 213.5,264.5C 211.091,263.299 209.091,261.633 207.5,259.5C 205.677,260.747 203.677,261.414 201.5,261.5C 201.215,263.288 201.548,264.955 202.5,266.5C 203.249,264.988 204.416,263.988 206,263.5C 208.001,264.719 209.834,266.053 211.5,267.5C 209.175,268.518 207.175,269.851 205.5,271.5C 203.572,269.526 201.239,268.026 198.5,267C 190.841,266.5 183.174,266.334 175.5,266.5C 159.342,265.504 143.009,265.17 126.5,265.5C 126.5,264.5 126.5,263.5 126.5,262.5C 130.566,262.693 134.566,262.36 138.5,261.5C 140.134,262.161 141.967,262.494 144,262.5C 153.474,261.373 162.974,260.54 172.5,260C 173.381,259.292 174.047,258.458 174.5,257.5C 176.735,257.795 178.735,257.461 180.5,256.5C 179.363,232.197 179.196,207.864 180,183.5C 181.969,181.018 183.136,178.518 183.5,176C 175.299,175.692 167.466,174.192 160,171.5C 156.584,172.148 153.084,172.482 149.5,172.5C 145.651,172.632 141.984,172.132 138.5,171C 160.042,169.8 181.709,168.966 203.5,168.5C 203.5,167.5 203.5,166.5 203.5,165.5 Z"/></g>
<g><path style="opacity:1" fill="#1677c0" d="M 333.5,167.5 C 335.045,168.23 335.878,169.563 336,171.5C 337.388,170.446 338.888,170.28 340.5,171C 339.167,171.667 338.167,172.667 337.5,174C 338.114,175.13 338.114,176.463 337.5,178C 338.729,183.457 339.729,188.957 340.5,194.5C 341.086,194.291 341.586,193.957 342,193.5C 342.333,194.833 342.667,196.167 343,197.5C 342.407,190.524 342.073,183.524 342,176.5C 342.333,177.833 342.667,179.167 343,180.5C 343.669,177.972 344.502,177.972 345.5,180.5C 342.639,183.734 342.972,187.234 346.5,191C 345.833,191.333 345.167,191.667 344.5,192C 345.316,193.923 345.983,195.923 346.5,198C 345.844,201.008 345.844,203.841 346.5,206.5C 345.689,207.216 345.022,208.05 344.5,209C 345.064,215.037 346.398,220.87 348.5,226.5C 349.5,226.5 350.5,226.5 351.5,226.5C 351.421,227.93 351.754,229.264 352.5,230.5C 349.867,231.318 348.7,232.984 349,235.5C 350.844,233.1 352.344,233.433 353.5,236.5C 354.834,242.532 356.168,248.532 357.5,254.5C 352.817,254.674 349.817,257.008 348.5,261.5C 340.584,266.771 332.251,271.438 323.5,275.5C 323.5,274.5 323.5,273.5 323.5,272.5C 325.288,272.785 326.955,272.452 328.5,271.5C 331.896,268.768 334.563,265.435 336.5,261.5C 341.708,259.301 341.375,257.634 335.5,256.5C 336.167,255.833 336.833,255.167 337.5,254.5C 336.147,253.315 334.98,251.981 334,250.5C 333.085,251.328 332.419,252.328 332,253.5C 329.959,252.577 327.792,252.244 325.5,252.5C 330.294,249.265 335.294,246.265 340.5,243.5C 341.489,238.025 341.822,232.358 341.5,226.5C 335.167,226.5 328.833,226.5 322.5,226.5C 324.903,225.869 327.236,224.869 329.5,223.5C 329.071,220.888 328.071,219.388 326.5,219C 326.969,215.622 327.302,212.289 327.5,209C 322.177,208.501 316.844,208.334 311.5,208.5C 311.5,210.167 311.5,211.833 311.5,213.5C 311.167,213.5 310.833,213.5 310.5,213.5C 310.5,211.5 310.5,209.5 310.5,207.5C 317.5,207.5 324.5,207.5 331.5,207.5C 331.666,200.492 331.5,193.492 331,186.5C 326.684,183.934 322.517,181.267 318.5,178.5C 321.29,178.222 323.79,178.889 326,180.5C 327.301,179.902 328.135,178.902 328.5,177.5C 324.344,173.328 324.844,172.661 330,175.5C 330.5,175.167 331,174.833 331.5,174.5C 327.556,172.596 327.89,171.596 332.5,171.5C 332.433,170.041 332.766,168.708 333.5,167.5 Z"/></g>
<g><path style="opacity:1" fill="#32458e" d="M 273.5,179.5 C 267.263,183.294 260.929,187.128 254.5,191C 251.758,191.295 249.425,190.462 247.5,188.5C 249.861,188.674 252.194,189.007 254.5,189.5C 254.5,188.5 254.5,187.5 254.5,186.5C 258.241,187.401 260.241,186.068 260.5,182.5C 264.76,181.204 269.094,180.204 273.5,179.5 Z"/></g>
<g><path style="opacity:1" fill="#c66567" d="M 286.5,178.5 C 286.631,179.376 286.298,180.043 285.5,180.5C 282.811,181.557 280.311,182.89 278,184.5C 277.53,185.577 277.697,186.577 278.5,187.5C 275.725,187.166 275.059,185.833 276.5,183.5C 279.577,181.295 282.91,179.628 286.5,178.5 Z"/></g>
<g><path style="opacity:1" fill="#f45050" d="M 289.5,239.5 C 279.601,234.057 269.935,228.39 260.5,222.5C 265.408,223.181 269.908,224.848 274,227.5C 275.261,227.241 276.261,226.574 277,225.5C 279.096,226.715 278.929,227.549 276.5,228C 279.71,231.37 282.377,230.87 284.5,226.5C 281.705,225.752 281.038,224.252 282.5,222C 281.833,220.667 281.167,219.333 280.5,218C 280.836,216.97 281.503,216.47 282.5,216.5C 284.357,219.018 286.19,219.018 288,216.5C 288.182,207.922 288.682,199.422 289.5,191C 287.406,189.648 285.073,189.148 282.5,189.5C 280.847,189.34 279.514,188.674 278.5,187.5C 277.697,186.577 277.53,185.577 278,184.5C 280.311,182.89 282.811,181.557 285.5,180.5C 286.298,180.043 286.631,179.376 286.5,178.5C 286.833,178.5 287.167,178.5 287.5,178.5C 293.509,175.76 299.009,176.76 304,181.5C 304.5,202.497 304.667,223.497 304.5,244.5C 299.737,242.246 294.737,240.579 289.5,239.5 Z"/></g>
<g><path style="opacity:1" fill="#c2271c" d="M 236.5,188.5 C 240.713,191.106 245.047,193.439 249.5,195.5C 244.595,193.885 239.595,192.552 234.5,191.5C 234.5,212.5 234.5,233.5 234.5,254.5C 233.503,232.673 233.169,210.673 233.5,188.5C 234.5,188.5 235.5,188.5 236.5,188.5 Z"/></g>
<g><path style="opacity:1" fill="#dc615f" d="M 282.5,189.5 C 285.073,189.148 287.406,189.648 289.5,191C 288.682,199.422 288.182,207.922 288,216.5C 286.19,219.018 284.357,219.018 282.5,216.5C 281.22,215.069 279.553,214.402 277.5,214.5C 277.5,213.5 277.5,212.5 277.5,211.5C 280.223,213.281 283.057,214.948 286,216.5C 286.667,208.5 286.667,200.5 286,192.5C 284.482,191.837 283.315,190.837 282.5,189.5 Z"/></g>
<g><path style="opacity:1" fill="#d86f6f" d="M 289.5,239.5 C 294.737,240.579 299.737,242.246 304.5,244.5C 304.667,223.497 304.5,202.497 304,181.5C 299.009,176.76 293.509,175.76 287.5,178.5C 289.246,176.541 291.413,175.207 294,174.5C 297.938,175.637 301.605,177.304 305,179.5C 305.667,202.5 305.667,225.5 305,248.5C 299.82,245.333 294.653,242.333 289.5,239.5 Z"/></g>
<g><path style="opacity:1" fill="#a43331" d="M 236.5,188.5 C 235.5,188.5 234.5,188.5 233.5,188.5C 233.169,210.673 233.503,232.673 234.5,254.5C 234.5,254.833 234.5,255.167 234.5,255.5C 233.168,244.353 232.501,232.853 232.5,221C 232.833,209.5 233.167,198 233.5,186.5C 234.739,186.942 235.739,187.609 236.5,188.5 Z"/></g>
<g><path style="opacity:1" fill="#f16764" d="M 355.5,165.5 C 358.265,165.798 360.765,166.798 363,168.5C 363.816,177.412 363.65,186.245 362.5,195C 365.561,196.116 368.728,196.949 372,197.5C 372.266,214.167 372.099,230.834 371.5,247.5C 371.728,251.39 371.394,255.224 370.5,259C 368.129,260.844 365.795,262.677 363.5,264.5C 360.041,267.44 356.041,269.44 351.5,270.5C 349.334,270.579 347.334,271.246 345.5,272.5C 344.833,272.167 344.167,271.833 343.5,271.5C 347.642,269.022 351.308,266.022 354.5,262.5C 356.336,260.412 358.669,259.079 361.5,258.5C 363.582,258.376 365.082,257.376 366,255.5C 366.667,238.833 366.667,222.167 366,205.5C 363.454,202.814 360.287,201.814 356.5,202.5C 356.666,192.161 356.5,181.828 356,171.5C 351.64,169.061 347.474,166.228 343.5,163C 347.67,163.115 351.67,163.948 355.5,165.5 Z"/></g>
<g><path style="opacity:1" fill="#0653a7" d="M 322.5,226.5 C 318.833,226.5 315.167,226.5 311.5,226.5C 311.5,222.167 311.5,217.833 311.5,213.5C 311.5,211.833 311.5,210.167 311.5,208.5C 316.844,208.334 322.177,208.501 327.5,209C 327.302,212.289 326.969,215.622 326.5,219C 328.071,219.388 329.071,220.888 329.5,223.5C 327.236,224.869 324.903,225.869 322.5,226.5 Z"/></g>
<g><path style="opacity:1" fill="#238dcd" d="M 313.5,152.5 C 326.055,159.696 338.555,167.029 351,174.5C 351.179,184.744 351.679,194.91 352.5,205C 352.043,205.414 351.709,205.914 351.5,206.5C 354.704,207.204 357.871,207.87 361,208.5C 361.833,224.177 361.666,239.844 360.5,255.5C 356.241,257.12 352.241,259.12 348.5,261.5C 349.817,257.008 352.817,254.674 357.5,254.5C 356.168,248.532 354.834,242.532 353.5,236.5C 352.344,233.433 350.844,233.1 349,235.5C 348.7,232.984 349.867,231.318 352.5,230.5C 351.754,229.264 351.421,227.93 351.5,226.5C 350.5,226.5 349.5,226.5 348.5,226.5C 346.398,220.87 345.064,215.037 344.5,209C 345.022,208.05 345.689,207.216 346.5,206.5C 345.844,203.841 345.844,201.008 346.5,198C 345.983,195.923 345.316,193.923 344.5,192C 345.167,191.667 345.833,191.333 346.5,191C 342.972,187.234 342.639,183.734 345.5,180.5C 344.502,177.972 343.669,177.972 343,180.5C 342.667,179.167 342.333,177.833 342,176.5C 342.073,183.524 342.407,190.524 343,197.5C 342.667,196.167 342.333,194.833 342,193.5C 341.586,193.957 341.086,194.291 340.5,194.5C 339.729,188.957 338.729,183.457 337.5,178C 338.114,176.463 338.114,175.13 337.5,174C 338.167,172.667 339.167,171.667 340.5,171C 338.888,170.28 337.388,170.446 336,171.5C 335.878,169.563 335.045,168.23 333.5,167.5C 332.504,167.414 331.671,167.748 331,168.5C 329.649,166.981 328.149,165.648 326.5,164.5C 325.38,165.833 324.047,166.333 322.5,166C 322.522,160.564 319.856,157.397 314.5,156.5C 313.571,155.311 313.238,153.978 313.5,152.5 Z"/></g>
<g><path style="opacity:1" fill="#b6ddf7" d="M 310.5,213.5 C 310.833,213.5 311.167,213.5 311.5,213.5C 311.5,217.833 311.5,222.167 311.5,226.5C 315.167,226.5 318.833,226.5 322.5,226.5C 328.833,226.5 335.167,226.5 341.5,226.5C 341.822,232.358 341.489,238.025 340.5,243.5C 340.5,238.167 340.5,232.833 340.5,227.5C 330.5,227.5 320.5,227.5 310.5,227.5C 310.5,222.833 310.5,218.167 310.5,213.5 Z"/></g>
<g><path style="opacity:1" fill="#d56463" d="M 313.5,145.5 C 327.766,151.633 341.766,158.3 355.5,165.5C 351.67,163.948 347.67,163.115 343.5,163C 347.474,166.228 351.64,169.061 356,171.5C 356.5,181.828 356.666,192.161 356.5,202.5C 360.287,201.814 363.454,202.814 366,205.5C 366.667,222.167 366.667,238.833 366,255.5C 365.082,257.376 363.582,258.376 361.5,258.5C 362.992,257.393 363.992,255.893 364.5,254C 364.429,238.085 364.429,222.418 364.5,207C 364.355,206.228 364.022,205.561 363.5,205C 360.574,204.782 357.74,204.282 355,203.5C 354.832,193.151 354.332,182.817 353.5,172.5C 338.796,164.106 324.13,155.773 309.5,147.5C 310.287,145.896 311.62,145.229 313.5,145.5 Z"/></g>
<g><path style="opacity:1" fill="#de0e0d" d="M 249.5,195.5 C 250.971,198.375 253.305,200.375 256.5,201.5C 257.331,203.473 257.498,205.473 257,207.5C 257.779,206.272 258.779,205.272 260,204.5C 261.888,205.777 263.888,206.777 266,207.5C 266.279,210.757 264.946,211.757 262,210.5C 261.833,211 261.667,211.5 261.5,212C 263.815,213.986 265.148,216.486 265.5,219.5C 263.143,219.663 260.81,219.497 258.5,219C 260.952,216.929 260.286,216.096 256.5,216.5C 254.077,216.55 252.244,217.55 251,219.5C 250.333,227.5 250.333,235.5 251,243.5C 251.5,245.333 252.667,246.5 254.5,247C 253.903,248.628 254.237,250.295 255.5,252C 252.553,252.112 251.22,253.612 251.5,256.5C 248.756,256.248 246.256,256.915 244,258.5C 241.139,256.602 237.973,255.602 234.5,255.5C 234.5,255.167 234.5,254.833 234.5,254.5C 234.5,233.5 234.5,212.5 234.5,191.5C 239.595,192.552 244.595,193.885 249.5,195.5 Z"/></g>
<g><path style="opacity:1" fill="#d93631" d="M 249.5,195.5 C 258.596,201.266 267.929,206.599 277.5,211.5C 277.5,212.5 277.5,213.5 277.5,214.5C 279.553,214.402 281.22,215.069 282.5,216.5C 281.503,216.47 280.836,216.97 280.5,218C 281.167,219.333 281.833,220.667 282.5,222C 281.038,224.252 281.705,225.752 284.5,226.5C 282.377,230.87 279.71,231.37 276.5,228C 278.929,227.549 279.096,226.715 277,225.5C 276.261,226.574 275.261,227.241 274,227.5C 269.908,224.848 265.408,223.181 260.5,222.5C 257.807,221.448 255.14,220.448 252.5,219.5C 252.951,227.13 253.117,234.796 253,242.5C 256.808,244.653 260.308,247.153 263.5,250C 257.501,254.662 251.001,258.496 244,261.5C 240.82,259.338 237.654,257.338 234.5,255.5C 237.973,255.602 241.139,256.602 244,258.5C 246.256,256.915 248.756,256.248 251.5,256.5C 251.22,253.612 252.553,252.112 255.5,252C 254.237,250.295 253.903,248.628 254.5,247C 252.667,246.5 251.5,245.333 251,243.5C 250.333,235.5 250.333,227.5 251,219.5C 252.244,217.55 254.077,216.55 256.5,216.5C 260.286,216.096 260.952,216.929 258.5,219C 260.81,219.497 263.143,219.663 265.5,219.5C 265.148,216.486 263.815,213.986 261.5,212C 261.667,211.5 261.833,211 262,210.5C 264.946,211.757 266.279,210.757 266,207.5C 263.888,206.777 261.888,205.777 260,204.5C 258.779,205.272 257.779,206.272 257,207.5C 257.498,205.473 257.331,203.473 256.5,201.5C 253.305,200.375 250.971,198.375 249.5,195.5 Z"/></g>
<g><path style="opacity:1" fill="#3084c0" d="M 288.5,264.5 C 287.596,263.791 287.263,262.791 287.5,261.5C 294.629,260.309 294.963,258.642 288.5,256.5C 289.5,255.5 290.5,254.5 291.5,253.5C 292.768,254.428 294.101,254.595 295.5,254C 294.833,253.667 294.167,253.333 293.5,253C 294.451,252.282 294.617,251.449 294,250.5C 291.826,247.982 289.159,246.315 286,245.5C 280.712,249.214 274.878,251.881 268.5,253.5C 273.347,250.165 278.347,246.999 283.5,244C 285.167,243.333 286.833,243.333 288.5,244C 293.334,247.252 298.334,250.252 303.5,253C 304.833,254.333 304.833,255.667 303.5,257C 298.195,258.986 293.195,261.486 288.5,264.5 Z"/></g>
<g><path style="opacity:1" fill="#1f4ea3" d="M 323.5,275.5 C 315.113,281.449 306.28,286.782 297,291.5C 291.229,289.37 286.062,286.37 281.5,282.5C 287.588,282.607 292.588,284.941 296.5,289.5C 301.202,287.296 304.702,283.962 307,279.5C 308.599,281.036 310.433,281.536 312.5,281C 313.065,279.326 313.232,277.493 313,275.5C 314.865,274.919 316.531,275.586 318,277.5C 320.034,276.056 320.868,274.056 320.5,271.5C 323.243,271.923 324.576,270.756 324.5,268C 323.715,266.049 322.715,264.215 321.5,262.5C 321.833,261.833 322.167,261.167 322.5,260.5C 319.756,260.106 316.756,259.773 313.5,259.5C 313.5,260.5 313.5,261.5 313.5,262.5C 314.552,262.351 315.552,262.517 316.5,263C 315.333,263.5 314.5,264.333 314,265.5C 313.255,264.01 312.088,263.01 310.5,262.5C 308.238,263.467 305.905,264.134 303.5,264.5C 310.505,259.995 317.839,255.995 325.5,252.5C 327.792,252.244 329.959,252.577 332,253.5C 332.419,252.328 333.085,251.328 334,250.5C 334.98,251.981 336.147,253.315 337.5,254.5C 336.833,255.167 336.167,255.833 335.5,256.5C 341.375,257.634 341.708,259.301 336.5,261.5C 334.563,265.435 331.896,268.768 328.5,271.5C 326.955,272.452 325.288,272.785 323.5,272.5C 323.5,273.5 323.5,274.5 323.5,275.5 Z"/></g>
<g><path style="opacity:1" fill="#edaeaf" d="M 371.5,247.5 C 372.647,251.646 372.814,255.98 372,260.5C 369.36,262.32 366.527,263.654 363.5,264.5C 365.795,262.677 368.129,260.844 370.5,259C 371.394,255.224 371.728,251.39 371.5,247.5 Z"/></g>
<g><path style="opacity:1" fill="#2d468a" d="M 174.5,257.5 C 174.047,258.458 173.381,259.292 172.5,260C 162.974,260.54 153.474,261.373 144,262.5C 141.967,262.494 140.134,262.161 138.5,261.5C 150.59,260.82 162.59,259.487 174.5,257.5 Z"/></g>
<g><path style="opacity:1" fill="#1c53a7" d="M 220.5,256.5 C 221.552,256.351 222.552,256.517 223.5,257C 229.415,261.209 235.582,265.042 242,268.5C 247.807,265.017 253.64,261.683 259.5,258.5C 263.876,256.846 267.876,257.512 271.5,260.5C 270.737,261.719 269.737,262.719 268.5,263.5C 269.313,264.814 270.313,265.981 271.5,267C 269.219,268.851 269.219,270.518 271.5,272C 267.336,271.024 265.336,272.857 265.5,277.5C 258.588,283.059 250.921,287.392 242.5,290.5C 242.5,290.167 242.5,289.833 242.5,289.5C 245.079,286.865 248.079,284.699 251.5,283C 249.845,281.556 249.178,279.722 249.5,277.5C 251.527,277.662 253.527,277.495 255.5,277C 252.352,275.924 249.352,274.591 246.5,273C 247.949,271.883 249.616,271.216 251.5,271C 250,270.167 248.833,269 248,267.5C 245.406,268.462 243.406,270.129 242,272.5C 240.172,269.581 237.505,267.915 234,267.5C 232.989,268.337 231.822,268.67 230.5,268.5C 230.213,264.845 228.547,262.012 225.5,260C 223.866,259.506 222.199,259.34 220.5,259.5C 220.5,258.5 220.5,257.5 220.5,256.5 Z"/></g>
<g><path style="opacity:1" fill="#243d71" d="M 126.5,262.5 C 126.5,263.5 126.5,264.5 126.5,265.5C 143.009,265.17 159.342,265.504 175.5,266.5C 152.831,266.667 130.164,266.5 107.5,266C 113.656,263.893 119.989,262.727 126.5,262.5 Z"/></g>
<g><path style="opacity:1" fill="#073396" d="M 281.5,282.5 C 278.91,281.872 276.577,280.705 274.5,279C 273.167,278 273.167,277 274.5,276C 280.382,273.375 286.048,270.375 291.5,267C 293.567,266.464 295.401,266.964 297,268.5C 299.314,267.267 301.481,265.933 303.5,264.5C 305.905,264.134 308.238,263.467 310.5,262.5C 312.088,263.01 313.255,264.01 314,265.5C 314.5,264.333 315.333,263.5 316.5,263C 315.552,262.517 314.552,262.351 313.5,262.5C 313.5,261.5 313.5,260.5 313.5,259.5C 316.756,259.773 319.756,260.106 322.5,260.5C 322.167,261.167 321.833,261.833 321.5,262.5C 322.715,264.215 323.715,266.049 324.5,268C 324.576,270.756 323.243,271.923 320.5,271.5C 320.868,274.056 320.034,276.056 318,277.5C 316.531,275.586 314.865,274.919 313,275.5C 313.232,277.493 313.065,279.326 312.5,281C 310.433,281.536 308.599,281.036 307,279.5C 304.702,283.962 301.202,287.296 296.5,289.5C 292.588,284.941 287.588,282.607 281.5,282.5 Z"/></g>
<g><path style="opacity:1" fill="#166ebb" d="M 288.5,264.5 C 281.095,269.226 273.428,273.559 265.5,277.5C 265.336,272.857 267.336,271.024 271.5,272C 269.219,270.518 269.219,268.851 271.5,267C 270.313,265.981 269.313,264.814 268.5,263.5C 269.737,262.719 270.737,261.719 271.5,260.5C 267.876,257.512 263.876,256.846 259.5,258.5C 262.272,256.61 265.272,254.943 268.5,253.5C 274.878,251.881 280.712,249.214 286,245.5C 289.159,246.315 291.826,247.982 294,250.5C 294.617,251.449 294.451,252.282 293.5,253C 294.167,253.333 294.833,253.667 295.5,254C 294.101,254.595 292.768,254.428 291.5,253.5C 290.5,254.5 289.5,255.5 288.5,256.5C 294.963,258.642 294.629,260.309 287.5,261.5C 287.263,262.791 287.596,263.791 288.5,264.5 Z"/></g>
<g><path style="opacity:1" fill="#d0534f" d="M 354.5,262.5 C 351.308,266.022 347.642,269.022 343.5,271.5C 344.167,271.833 344.833,272.167 345.5,272.5C 347.334,271.246 349.334,270.579 351.5,270.5C 340.547,276.643 329.213,282.31 317.5,287.5C 314.995,288.417 312.662,288.417 310.5,287.5C 324.901,278.635 339.568,270.301 354.5,262.5 Z"/></g>
<g><path style="opacity:1" fill="#1a3980" d="M 182.5,273.5 C 173.615,275.073 164.615,276.573 155.5,278C 179.498,278.5 203.498,278.667 227.5,278.5C 227.833,280.5 228.167,282.5 228.5,284.5C 226.473,284.662 224.473,284.495 222.5,284C 223.056,283.617 223.389,283.117 223.5,282.5C 223.938,282.565 224.272,282.399 224.5,282C 223.672,281.085 222.672,280.419 221.5,280C 192.5,279.667 163.5,279.333 134.5,279C 142.101,277.553 149.767,276.053 157.5,274.5C 159.235,275.057 160.902,275.39 162.5,275.5C 169.062,273.953 175.729,273.286 182.5,273.5 Z"/></g>
<g><path style="opacity:1" fill="#043496" d="M 230.5,268.5 C 231.822,268.67 232.989,268.337 234,267.5C 237.505,267.915 240.172,269.581 242,272.5C 243.406,270.129 245.406,268.462 248,267.5C 248.833,269 250,270.167 251.5,271C 249.616,271.216 247.949,271.883 246.5,273C 249.352,274.591 252.352,275.924 255.5,277C 253.527,277.495 251.527,277.662 249.5,277.5C 249.178,279.722 249.845,281.556 251.5,283C 248.079,284.699 245.079,286.865 242.5,289.5C 228.126,289.869 213.793,289.369 199.5,288C 206.625,286.415 213.625,284.915 220.5,283.5C 221.391,282.89 222.391,282.557 223.5,282.5C 223.389,283.117 223.056,283.617 222.5,284C 224.473,284.495 226.473,284.662 228.5,284.5C 228.167,282.5 227.833,280.5 227.5,278.5C 203.498,278.667 179.498,278.5 155.5,278C 164.615,276.573 173.615,275.073 182.5,273.5C 189.937,271.868 197.604,271.201 205.5,271.5C 207.175,269.851 209.175,268.518 211.5,267.5C 209.834,266.053 208.001,264.719 206,263.5C 204.416,263.988 203.249,264.988 202.5,266.5C 201.548,264.955 201.215,263.288 201.5,261.5C 203.677,261.414 205.677,260.747 207.5,259.5C 209.091,261.633 211.091,263.299 213.5,264.5C 214.086,264.291 214.586,263.957 215,263.5C 218.471,264.902 221.804,266.569 225,268.5C 227.029,269.403 228.863,269.403 230.5,268.5 Z"/></g>
<g><path style="opacity:1" fill="#3a5080" d="M 174.5,287.5 C 174.389,288.117 174.056,288.617 173.5,289C 171.167,289.333 168.833,289.667 166.5,290C 171.351,290.174 176.018,290.674 180.5,291.5C 172.804,291.831 165.138,291.497 157.5,290.5C 158.025,289.808 158.692,289.308 159.5,289C 164.549,288.728 169.549,288.228 174.5,287.5 Z"/></g>
<g><path style="opacity:1" fill="#27428e" d="M 220.5,283.5 C 213.625,284.915 206.625,286.415 199.5,288C 213.793,289.369 228.126,289.869 242.5,289.5C 242.5,289.833 242.5,290.167 242.5,290.5C 222.007,291.497 201.34,291.831 180.5,291.5C 176.018,290.674 171.351,290.174 166.5,290C 168.833,289.667 171.167,289.333 173.5,289C 174.056,288.617 174.389,288.117 174.5,287.5C 189.681,286.693 205.015,285.36 220.5,283.5 Z"/></g>
<g><path style="opacity:1" fill="#9c4753" d="M 310.5,287.5 C 312.662,288.417 314.995,288.417 317.5,287.5C 311.159,290.35 304.993,293.683 299,297.5C 298.075,296.953 297.242,296.287 296.5,295.5C 300.944,292.378 305.61,289.711 310.5,287.5 Z"/></g>
<g><path style="opacity:1" fill="#b6514d" d="M 321.5,313.5 C 339.167,312.167 356.833,312.167 374.5,313.5C 372.5,313.5 370.5,313.5 368.5,313.5C 368.802,316.059 368.468,318.393 367.5,320.5C 366.167,320.5 364.833,320.5 363.5,320.5C 364.5,319.833 365.5,319.167 366.5,318.5C 367.451,317.081 367.784,315.415 367.5,313.5C 352.167,313.5 336.833,313.5 321.5,313.5 Z"/></g>
<g><path style="opacity:1" fill="#c23d34" d="M 251.5,325.5 C 255.833,325.5 260.167,325.5 264.5,325.5C 264.335,322.482 264.502,319.482 265,316.5C 265.833,315 267,313.833 268.5,313C 274.167,312.333 279.833,312.333 285.5,313C 286.667,314.167 287.833,315.333 289,316.5C 289.833,315 291,313.833 292.5,313C 295.667,312.833 298.833,312.667 302,312.5C 305.603,312.55 308.936,313.217 312,314.5C 313.009,313.342 314.342,312.675 316,312.5C 317.681,312.608 318.848,313.275 319.5,314.5C 317.621,313.659 315.621,313.325 313.5,313.5C 313.5,319.167 313.5,324.833 313.5,330.5C 314.833,330.5 316.167,330.5 317.5,330.5C 317.736,327.086 318.402,323.753 319.5,320.5C 320.522,320.855 321.189,321.522 321.5,322.5C 325.514,322.666 329.514,322.499 333.5,322C 331.5,321.167 329.5,320.333 327.5,319.5C 327.709,318.914 328.043,318.414 328.5,318C 332.541,317.827 336.541,317.327 340.5,316.5C 341.68,313.919 342.68,314.086 343.5,317C 346.426,317.218 349.26,317.718 352,318.5C 352.499,322.486 352.666,326.486 352.5,330.5C 353.833,330.5 355.167,330.5 356.5,330.5C 355.81,326.51 355.643,322.51 356,318.5C 359.418,317.734 362.918,317.734 366.5,318.5C 365.5,319.167 364.5,319.833 363.5,320.5C 361.565,319.85 359.565,319.517 357.5,319.5C 357.5,323.833 357.5,328.167 357.5,332.5C 355.167,332.5 352.833,332.5 350.5,332.5C 350.5,328.167 350.5,323.833 350.5,319.5C 347.934,319.656 345.434,319.322 343,318.5C 339.662,318.951 339.162,319.951 341.5,321.5C 343.279,325.582 342.612,329.082 339.5,332C 330.506,332.5 321.506,332.666 312.5,332.5C 312.666,327.821 312.499,323.155 312,318.5C 311.329,319.252 310.496,319.586 309.5,319.5C 310.038,317.883 310.371,316.216 310.5,314.5C 304.491,314.334 298.491,314.501 292.5,315C 290.941,316.996 290.274,319.329 290.5,322C 290.335,324.917 291.002,327.583 292.5,330C 298.757,331.317 305.091,331.817 311.5,331.5C 305.681,332.653 299.681,332.819 293.5,332C 291.714,331.215 290.214,330.049 289,328.5C 287.786,330.049 286.286,331.215 284.5,332C 279.5,332.667 274.5,332.667 269.5,332C 268.069,331.535 266.903,330.701 266,329.5C 265.626,330.416 265.126,331.25 264.5,332C 257.833,332.667 251.167,332.667 244.5,332C 243.522,325.59 243.189,319.09 243.5,312.5C 246.119,312.232 248.619,312.565 251,313.5C 251.499,317.486 251.666,321.486 251.5,325.5 Z M 304.5,323.5 C 304.5,324.167 304.5,324.833 304.5,325.5C 301.813,325.664 299.146,325.497 296.5,325C 295.167,323 295.167,321 296.5,319C 299.167,318.333 301.833,318.333 304.5,319C 305.413,320.414 305.413,321.914 304.5,323.5 Z M 321.5,322.5 C 325.545,324.177 329.878,324.844 334.5,324.5C 334.5,325.167 334.167,325.5 333.5,325.5C 328.833,325.5 324.167,325.5 319.5,325.5C 319.285,323.821 319.952,322.821 321.5,322.5 Z M 275.5,318.5 C 280.418,318.172 282.418,320.505 281.5,325.5C 278.482,325.665 275.482,325.498 272.5,325C 271.594,323.301 271.261,321.467 271.5,319.5C 273.099,319.768 274.432,319.434 275.5,318.5 Z"/></g>
<g><path style="opacity:1" fill="#fad2cc" d="M 381.5,312.5 C 382.167,314.167 382.833,315.833 383.5,317.5C 383.158,318.338 382.492,318.672 381.5,318.5C 381.5,316.5 381.5,314.5 381.5,312.5 Z"/></g>
<g><path style="opacity:1" fill="#d57d73" d="M 149.5,313.5 C 151.746,320.245 149.412,322.245 142.5,319.5C 144.259,319.046 146.259,319.046 148.5,319.5C 148.517,317.435 148.85,315.435 149.5,313.5 Z"/></g>
<g><path style="opacity:1" fill="#cb1e16" d="M 205.5,312.5 C 207.621,312.325 209.621,312.659 211.5,313.5C 211.697,319.545 211.363,325.545 210.5,331.5C 207.36,332.641 204.027,332.808 200.5,332C 198.693,328.885 197.027,325.719 195.5,322.5C 195.719,321.325 195.386,320.325 194.5,319.5C 193.509,323.445 193.176,327.445 193.5,331.5C 191.274,332.756 188.941,332.756 186.5,331.5C 180.824,331.666 175.157,331.499 169.5,331C 168.333,330.5 167.5,329.667 167,328.5C 164.513,323.26 165.013,318.427 168.5,314C 174.157,313.501 179.824,313.334 185.5,313.5C 185.5,315.167 185.5,316.833 185.5,318.5C 182.941,318.198 180.607,318.532 178.5,319.5C 176.167,319.5 173.833,319.5 171.5,319.5C 171.5,321.5 171.5,323.5 171.5,325.5C 176.762,325.195 181.928,325.529 187,326.5C 187.497,324.19 187.663,321.857 187.5,319.5C 187.5,317.5 187.5,315.5 187.5,313.5C 191.269,313.244 194.936,313.577 198.5,314.5C 200.56,317.24 202.226,320.24 203.5,323.5C 203.783,324.289 204.283,324.956 205,325.5C 205.499,321.179 205.666,316.846 205.5,312.5 Z M 178.5,319.5 C 181.535,320.734 184.535,320.734 187.5,319.5C 187.663,321.857 187.497,324.19 187,326.5C 181.928,325.529 176.762,325.195 171.5,325.5C 171.5,323.5 171.5,321.5 171.5,319.5C 173.833,319.5 176.167,319.5 178.5,319.5 Z"/></g>
<g><path style="opacity:1" fill="#cd0a08" d="M 319.5,314.5 C 320.167,314.167 320.833,313.833 321.5,313.5C 336.833,313.5 352.167,313.5 367.5,313.5C 367.784,315.415 367.451,317.081 366.5,318.5C 362.918,317.734 359.418,317.734 356,318.5C 355.643,322.51 355.81,326.51 356.5,330.5C 355.167,330.5 353.833,330.5 352.5,330.5C 352.666,326.486 352.499,322.486 352,318.5C 349.26,317.718 346.426,317.218 343.5,317C 342.68,314.086 341.68,313.919 340.5,316.5C 336.541,317.327 332.541,317.827 328.5,318C 328.043,318.414 327.709,318.914 327.5,319.5C 329.5,320.333 331.5,321.167 333.5,322C 329.514,322.499 325.514,322.666 321.5,322.5C 321.189,321.522 320.522,320.855 319.5,320.5C 318.402,323.753 317.736,327.086 317.5,330.5C 316.167,330.5 314.833,330.5 313.5,330.5C 313.5,324.833 313.5,319.167 313.5,313.5C 315.621,313.325 317.621,313.659 319.5,314.5 Z M 321.5,322.5 C 325.545,324.177 329.878,324.844 334.5,324.5C 334.5,325.167 334.167,325.5 333.5,325.5C 328.833,325.5 324.167,325.5 319.5,325.5C 319.285,323.821 319.952,322.821 321.5,322.5 Z"/></g>
<g><path style="opacity:1" fill="#c52c23" d="M 393.5,326.5 C 391.883,325.962 390.216,325.629 388.5,325.5C 388.617,323.516 387.95,321.85 386.5,320.5C 386.709,319.914 387.043,319.414 387.5,319C 385.321,319.284 383.321,319.117 381.5,318.5C 382.492,318.672 383.158,318.338 383.5,317.5C 387.378,312.591 392.378,311.258 398.5,313.5C 395.742,316.718 392.409,319.218 388.5,321C 390.373,322.704 392.04,324.537 393.5,326.5 Z"/></g>
<g><path style="opacity:1" fill="#ca2015" d="M 149.5,313.5 C 148.85,315.435 148.517,317.435 148.5,319.5C 146.259,319.046 144.259,319.046 142.5,319.5C 141.5,319.5 140.5,319.5 139.5,319.5C 139.5,323.833 139.5,328.167 139.5,332.5C 137.208,332.756 135.041,332.423 133,331.5C 132.501,327.514 132.334,323.514 132.5,319.5C 130.05,319.702 127.717,319.369 125.5,318.5C 125.5,317.833 125.5,317.167 125.5,316.5C 125.5,315.5 125.5,314.5 125.5,313.5C 133.5,313.5 141.5,313.5 149.5,313.5 Z"/></g>
<g><path style="opacity:1" fill="#bd3830" d="M 309.5,319.5 C 310.167,320.167 310.833,320.833 311.5,321.5C 308.812,321.166 306.479,321.832 304.5,323.5C 305.413,321.914 305.413,320.414 304.5,319C 301.833,318.333 299.167,318.333 296.5,319C 295.167,321 295.167,323 296.5,325C 299.146,325.497 301.813,325.664 304.5,325.5C 301.696,326.638 298.696,326.805 295.5,326C 293.381,323.782 293.048,321.282 294.5,318.5C 296.44,317.905 298.44,317.572 300.5,317.5C 303.741,317.448 306.741,318.115 309.5,319.5 Z"/></g>
<g><path style="opacity:1" fill="#f8b3b0" d="M 205.5,312.5 C 205.666,316.846 205.499,321.179 205,325.5C 204.283,324.956 203.783,324.289 203.5,323.5C 204.167,319.833 204.833,316.167 205.5,312.5 Z"/></g>
<g><path style="opacity:1" fill="#cf0203" d="M 251.5,325.5 C 255.298,326.483 259.298,326.817 263.5,326.5C 263.5,327.833 263.5,329.167 263.5,330.5C 257.5,330.5 251.5,330.5 245.5,330.5C 244.725,325.203 244.392,319.87 244.5,314.5C 246.167,314.5 247.833,314.5 249.5,314.5C 248.92,318.649 249.586,322.316 251.5,325.5 Z"/></g>
<g><path style="opacity:1" fill="#c05148" d="M 149.5,313.5 C 141.5,313.5 133.5,313.5 125.5,313.5C 125.5,314.5 125.5,315.5 125.5,316.5C 124.167,317.167 124.167,317.833 125.5,318.5C 125.38,321.48 124.713,324.313 123.5,327C 118.964,328.379 114.297,328.879 109.5,328.5C 109.737,329.791 109.404,330.791 108.5,331.5C 106.44,332.811 104.274,332.811 102,331.5C 101.191,325.251 101.358,319.084 102.5,313C 108.833,312.333 115.167,312.333 121.5,313C 122.025,313.692 122.692,314.192 123.5,314.5C 127.817,313.228 132.317,312.562 137,312.5C 141.347,312.501 145.514,312.834 149.5,313.5 Z M 109.5,319.5 C 112.247,319.187 114.914,319.52 117.5,320.5C 116.167,320.833 114.833,321.167 113.5,321.5C 111.667,321.415 110.334,320.748 109.5,319.5 Z"/></g>
<g><path style="opacity:1" fill="#cd0c09" d="M 381.5,312.5 C 381.5,314.5 381.5,316.5 381.5,318.5C 383.321,319.117 385.321,319.284 387.5,319C 387.043,319.414 386.709,319.914 386.5,320.5C 387.95,321.85 388.617,323.516 388.5,325.5C 390.216,325.629 391.883,325.962 393.5,326.5C 393.511,328.017 394.177,329.184 395.5,330C 392.779,330.602 390.113,330.435 387.5,329.5C 386.167,328.5 384.833,327.5 383.5,326.5C 383.217,325.711 382.717,325.044 382,324.5C 381.51,325.793 381.343,327.127 381.5,328.5C 379.886,330.075 377.886,330.741 375.5,330.5C 375.5,324.833 375.5,319.167 375.5,313.5C 377.265,312.539 379.265,312.205 381.5,312.5 Z"/></g>
<g><path style="opacity:1" fill="#ce0606" d="M 309.5,319.5 C 306.741,318.115 303.741,317.448 300.5,317.5C 298.44,317.572 296.44,317.905 294.5,318.5C 293.048,321.282 293.381,323.782 295.5,326C 298.696,326.805 301.696,326.638 304.5,325.5C 304.5,324.833 304.5,324.167 304.5,323.5C 306.479,321.832 308.812,321.166 311.5,321.5C 311.5,324.833 311.5,328.167 311.5,331.5C 305.091,331.817 298.757,331.317 292.5,330C 291.002,327.583 290.335,324.917 290.5,322C 290.274,319.329 290.941,316.996 292.5,315C 298.491,314.501 304.491,314.334 310.5,314.5C 310.371,316.216 310.038,317.883 309.5,319.5 Z"/></g>
<g><path style="opacity:1" fill="#cc100c" d="M 108.5,331.5 C 106.833,331.5 105.167,331.5 103.5,331.5C 103.192,325.575 103.525,319.741 104.5,314C 110.724,312.939 116.724,313.606 122.5,316C 123.266,319.418 123.266,322.918 122.5,326.5C 117.881,327.314 113.214,327.647 108.5,327.5C 108.5,328.833 108.5,330.167 108.5,331.5 Z M 109.5,319.5 C 110.334,320.748 111.667,321.415 113.5,321.5C 114.833,321.167 116.167,320.833 117.5,320.5C 114.914,319.52 112.247,319.187 109.5,319.5 Z"/></g>
<g><path style="opacity:1" fill="#c55149" d="M 198.5,314.5 C 194.936,313.577 191.269,313.244 187.5,313.5C 187.5,315.5 187.5,317.5 187.5,319.5C 184.535,320.734 181.535,320.734 178.5,319.5C 180.607,318.532 182.941,318.198 185.5,318.5C 185.5,316.833 185.5,315.167 185.5,313.5C 179.824,313.334 174.157,313.501 168.5,314C 165.013,318.427 164.513,323.26 167,328.5C 167.5,329.667 168.333,330.5 169.5,331C 175.157,331.499 180.824,331.666 186.5,331.5C 183.686,332.165 180.686,332.498 177.5,332.5C 164.617,333.427 160.45,327.76 165,315.5C 165.833,314.667 166.667,313.833 167.5,313C 172.667,312.833 177.833,312.667 183,312.5C 188.546,312.505 193.712,313.172 198.5,314.5 Z"/></g>
<g><path style="opacity:1" fill="#cb6d6d" d="M 195.5,322.5 C 194.833,325.5 194.167,328.5 193.5,331.5C 193.176,327.445 193.509,323.445 194.5,319.5C 195.386,320.325 195.719,321.325 195.5,322.5 Z"/></g>
<g><path style="opacity:1" fill="#fac9cb" d="M 383.5,326.5 C 382.833,328.167 382.167,329.833 381.5,331.5C 381.5,330.5 381.5,329.5 381.5,328.5C 381.343,327.127 381.51,325.793 382,324.5C 382.717,325.044 383.217,325.711 383.5,326.5 Z"/></g>
<g><path style="opacity:1" fill="#c53733" d="M 210.5,331.5 C 211.363,325.545 211.697,319.545 211.5,313.5C 217.987,312.346 224.654,312.179 231.5,313C 232,313.5 232.5,314 233,314.5C 233.667,319.833 233.667,325.167 233,330.5C 232.25,331.126 231.416,331.626 230.5,332C 223.753,332.792 217.086,332.626 210.5,331.5 Z"/></g>
<g><path style="opacity:1" fill="#cb130d" d="M 212.5,313.5 C 218.509,313.334 224.509,313.501 230.5,314C 231.141,316.578 231.475,319.245 231.5,322C 231.432,324.95 230.766,327.617 229.5,330C 223.843,330.499 218.176,330.666 212.5,330.5C 212.5,324.833 212.5,319.167 212.5,313.5 Z"/></g>
<g><path style="opacity:1" fill="#c34943" d="M 374.5,313.5 C 374.833,313.5 375.167,313.5 375.5,313.5C 375.5,319.167 375.5,324.833 375.5,330.5C 377.886,330.741 379.886,330.075 381.5,328.5C 381.5,329.5 381.5,330.5 381.5,331.5C 378.046,332.015 374.546,332.348 371,332.5C 369.833,332.333 368.667,332.167 367.5,332C 366.226,331.023 366.226,330.189 367.5,329.5C 369.265,330.461 371.265,330.795 373.5,330.5C 373.532,324.811 373.866,319.145 374.5,313.5 Z"/></g>
<g><path style="opacity:1" fill="#cd0404" d="M 333.5,325.5 C 334.167,325.5 334.5,325.167 334.5,324.5C 335.653,323.687 335.653,322.687 334.5,321.5C 336.898,320.272 338.732,320.938 340,323.5C 340.497,325.81 340.663,328.143 340.5,330.5C 333.833,330.5 327.167,330.5 320.5,330.5C 320.5,329.167 320.5,327.833 320.5,326.5C 325.032,326.818 329.366,326.485 333.5,325.5 Z"/></g>
<g><path style="opacity:1" fill="#d00c07" d="M 270.5,314.5 C 274.846,314.334 279.179,314.501 283.5,315C 287.228,316.063 288.894,318.563 288.5,322.5C 288.333,324.167 288.167,325.833 288,327.5C 281.769,330.396 275.269,331.063 268.5,329.5C 266.578,325.701 266.078,321.701 267,317.5C 267.985,316.186 269.152,315.186 270.5,314.5 Z M 275.5,318.5 C 274.432,319.434 273.099,319.768 271.5,319.5C 271.261,321.467 271.594,323.301 272.5,325C 275.482,325.498 278.482,325.665 281.5,325.5C 282.418,320.505 280.418,318.172 275.5,318.5 Z"/></g>
<g><path style="opacity:1" fill="#c40b09" d="M 374.5,313.5 C 373.866,319.145 373.532,324.811 373.5,330.5C 371.265,330.795 369.265,330.461 367.5,329.5C 367.5,326.5 367.5,323.5 367.5,320.5C 368.468,318.393 368.802,316.059 368.5,313.5C 370.5,313.5 372.5,313.5 374.5,313.5 Z"/></g>
<g><path style="opacity:1" fill="#bb362d" d="M 148.5,325.5 C 153.791,325.439 155.458,327.773 153.5,332.5C 146.544,333.513 144.877,331.179 148.5,325.5 Z"/></g>
<g><path style="opacity:1" fill="#ba3f3a" d="M 393.5,326.5 C 396.621,327.288 398.288,329.288 398.5,332.5C 395.813,332.664 393.146,332.497 390.5,332C 389.058,331.623 388.058,330.79 387.5,329.5C 390.113,330.435 392.779,330.602 395.5,330C 394.177,329.184 393.511,328.017 393.5,326.5 Z"/></g>
<g><path style="opacity:1" fill="#c13c33" d="M 285.5,343.5 C 285.918,342.778 286.584,342.278 287.5,342C 294.014,341.18 300.347,341.347 306.5,342.5C 306.5,344.167 306.5,345.833 306.5,347.5C 306.082,348.222 305.416,348.722 304.5,349C 305.381,349.708 306.047,350.542 306.5,351.5C 306.5,354.167 306.5,356.833 306.5,359.5C 306.389,360.117 306.056,360.617 305.5,361C 291.171,361.5 276.837,361.667 262.5,361.5C 262.5,354.833 262.5,348.167 262.5,341.5C 269.508,341.334 276.508,341.5 283.5,342C 284.044,342.717 284.711,343.217 285.5,343.5 Z M 286.5,351.5 C 289.203,352.963 292.203,353.796 295.5,354C 294.906,354.464 294.239,354.631 293.5,354.5C 287.797,355.537 282.13,355.537 276.5,354.5C 277.09,353.234 277.59,351.901 278,350.5C 278.333,350.833 278.667,351.167 279,351.5C 280.441,350.74 281.941,350.074 283.5,349.5C 284.265,350.612 285.265,351.279 286.5,351.5 Z"/></g>
<g><path style="opacity:1" fill="#fbb1b5" d="M 269.5,348.5 C 271.948,347.527 274.615,347.194 277.5,347.5C 277.5,347.833 277.5,348.167 277.5,348.5C 276.508,348.328 275.842,348.662 275.5,349.5C 275.167,349.5 274.833,349.5 274.5,349.5C 273.081,348.549 271.415,348.216 269.5,348.5 Z"/></g>
<g><path style="opacity:1" fill="#f9ccb9" d="M 298.5,348.5 C 298.5,348.833 298.5,349.167 298.5,349.5C 296.011,349.702 293.677,349.202 291.5,348C 293.929,347.297 296.262,347.463 298.5,348.5 Z"/></g>
<g><path style="opacity:1" fill="#435493" d="M 99.5,349.5 C 117.167,349.5 134.833,349.5 152.5,349.5C 152.5,351.167 152.5,352.833 152.5,354.5C 135.163,354.667 117.83,354.5 100.5,354C 99.6198,352.644 99.2865,351.144 99.5,349.5 Z"/></g>
<g><path style="opacity:1" fill="#d10303" d="M 236.5,345.5 C 237.338,345.842 237.672,346.508 237.5,347.5C 237.369,351.285 236.702,354.952 235.5,358.5C 232.042,359.22 228.542,359.887 225,360.5C 221.281,360.519 217.781,359.852 214.5,358.5C 212.189,344.654 217.856,339.821 231.5,344C 233.154,344.608 234.821,345.108 236.5,345.5 Z M 220.5,348.5 C 223.833,348.5 227.167,348.5 230.5,348.5C 230.5,350.5 230.5,352.5 230.5,354.5C 227.167,354.5 223.833,354.5 220.5,354.5C 220.5,352.5 220.5,350.5 220.5,348.5 Z"/></g>
<g><path style="opacity:1" fill="#c94034" d="M 218.5,346.5 C 222.967,346.133 227.3,346.633 231.5,348C 232.591,350.064 232.758,352.231 232,354.5C 228.008,356.27 223.841,356.77 219.5,356C 218.549,352.943 218.216,349.777 218.5,346.5 Z M 220.5,348.5 C 220.5,350.5 220.5,352.5 220.5,354.5C 223.833,354.5 227.167,354.5 230.5,354.5C 230.5,352.5 230.5,350.5 230.5,348.5C 227.167,348.5 223.833,348.5 220.5,348.5 Z"/></g>
<g><path style="opacity:1" fill="#022d8c" d="M 102.5,350.5 C 118.514,350.167 134.514,350.501 150.5,351.5C 142.5,351.833 134.5,352.167 126.5,352.5C 118.138,352.498 110.138,351.831 102.5,350.5 Z"/></g>
<g><path style="opacity:1" fill="#cd0d0a" d="M 326.5,350.5 C 326.443,351.609 326.11,352.609 325.5,353.5C 323.592,354.486 322.592,356.152 322.5,358.5C 320.806,360.438 318.806,360.771 316.5,359.5C 317.309,357.929 317.643,356.262 317.5,354.5C 317.992,352.181 318.992,350.181 320.5,348.5C 322.325,346.882 324.158,345.215 326,343.5C 328.099,344.287 330.266,344.62 332.5,344.5C 332.5,345.833 332.5,347.167 332.5,348.5C 330.323,348.414 328.323,347.747 326.5,346.5C 326.094,347.557 326.094,348.891 326.5,350.5 Z"/></g>
<g><path style="opacity:1" fill="#c44840" d="M 180.5,350.5 C 178.228,348.982 176.895,346.815 176.5,344C 173.833,343.333 171.167,343.333 168.5,344C 167.527,349.407 167.193,354.907 167.5,360.5C 168.833,360.5 170.167,360.5 171.5,360.5C 171.176,356.445 171.509,352.445 172.5,348.5C 175.071,349.728 176.405,351.728 176.5,354.5C 175.571,353.064 174.405,351.731 173,350.5C 172.501,354.152 172.335,357.818 172.5,361.5C 170.167,361.5 167.833,361.5 165.5,361.5C 165.5,355.167 165.5,348.833 165.5,342.5C 173.999,339.009 178.999,341.675 180.5,350.5 Z"/></g>
<g><path style="opacity:1" fill="#f98e8f" d="M 306.5,342.5 C 307.167,342.5 307.833,342.5 308.5,342.5C 308.5,348.833 308.5,355.167 308.5,361.5C 307.833,360.833 307.167,360.167 306.5,359.5C 306.5,356.833 306.5,354.167 306.5,351.5C 307.833,350.167 307.833,348.833 306.5,347.5C 306.5,345.833 306.5,344.167 306.5,342.5 Z"/></g>
<g><path style="opacity:1" fill="#e28987" d="M 189.5,342.5 C 190.167,342.5 190.833,342.5 191.5,342.5C 191.5,348.833 191.5,355.167 191.5,361.5C 190.833,361.167 190.167,360.833 189.5,360.5C 189.5,354.5 189.5,348.5 189.5,342.5 Z"/></g>
<g><path style="opacity:1" fill="#495597" d="M 346.5,349.5 C 363.833,349.5 381.167,349.5 398.5,349.5C 398.5,351.167 398.5,352.833 398.5,354.5C 381.163,354.667 363.83,354.5 346.5,354C 345.272,352.51 345.272,351.01 346.5,349.5 Z"/></g>
<g><path style="opacity:1" fill="#032b8c" d="M 348.5,350.5 C 364.503,350.333 380.503,350.5 396.5,351C 388.492,352.154 380.325,352.654 372,352.5C 363.804,352.498 355.97,351.831 348.5,350.5 Z"/></g>
<g><path style="opacity:1" fill="#d00203" d="M 180.5,350.5 C 179.848,354.56 181.515,356.56 185.5,356.5C 185.5,352.5 185.5,348.5 185.5,344.5C 186.5,344.5 187.5,344.5 188.5,344.5C 188.387,349.518 188.053,354.518 187.5,359.5C 185.143,359.663 182.81,359.497 180.5,359C 179.468,357.373 178.134,356.207 176.5,355.5C 176.5,355.167 176.5,354.833 176.5,354.5C 176.405,351.728 175.071,349.728 172.5,348.5C 171.509,352.445 171.176,356.445 171.5,360.5C 170.167,360.5 168.833,360.5 167.5,360.5C 167.193,354.907 167.527,349.407 168.5,344C 171.167,343.333 173.833,343.333 176.5,344C 176.895,346.815 178.228,348.982 180.5,350.5 Z"/></g>
<g><path style="opacity:1" fill="#c42a22" d="M 189.5,342.5 C 189.5,348.5 189.5,354.5 189.5,360.5C 186.038,361.482 182.371,361.815 178.5,361.5C 178.396,359.297 177.73,357.297 176.5,355.5C 178.134,356.207 179.468,357.373 180.5,359C 182.81,359.497 185.143,359.663 187.5,359.5C 188.053,354.518 188.387,349.518 188.5,344.5C 187.5,344.5 186.5,344.5 185.5,344.5C 185.5,348.5 185.5,352.5 185.5,356.5C 181.515,356.56 179.848,354.56 180.5,350.5C 181.79,351.058 182.623,352.058 183,353.5C 183.499,349.514 183.666,345.514 183.5,341.5C 185.735,341.205 187.735,341.539 189.5,342.5 Z"/></g>
<g><path style="opacity:1" fill="#c14c3e" d="M 312.5,341.5 C 311.828,342.267 310.995,342.934 310,343.5C 309.501,349.157 309.334,354.824 309.5,360.5C 310.833,360.5 312.167,360.5 313.5,360.5C 313.5,354.167 313.5,347.833 313.5,341.5C 314.222,341.918 314.722,342.584 315,343.5C 315.333,348.167 315.667,352.833 316,357.5C 316.232,356.263 316.732,355.263 317.5,354.5C 317.643,356.262 317.309,357.929 316.5,359.5C 318.806,360.771 320.806,360.438 322.5,358.5C 322.5,359.5 322.5,360.5 322.5,361.5C 317.833,361.5 313.167,361.5 308.5,361.5C 308.5,355.167 308.5,348.833 308.5,342.5C 309.568,341.566 310.901,341.232 312.5,341.5 Z"/></g>
<g><path style="opacity:1" fill="#cd0504" d="M 312.5,341.5 C 312.833,341.5 313.167,341.5 313.5,341.5C 313.5,347.833 313.5,354.167 313.5,360.5C 312.167,360.5 310.833,360.5 309.5,360.5C 309.334,354.824 309.501,349.157 310,343.5C 310.995,342.934 311.828,342.267 312.5,341.5 Z"/></g>
<g><path style="opacity:1" fill="#cf0405" d="M 210.5,359.5 C 210.5,359.833 210.5,360.167 210.5,360.5C 204.824,360.666 199.157,360.499 193.5,360C 194.833,359.667 196.167,359.333 197.5,359C 196.044,358.577 195.544,357.744 196,356.5C 196.414,356.957 196.914,357.291 197.5,357.5C 201.311,356.958 204.978,355.958 208.5,354.5C 207.972,352.664 207.306,350.997 206.5,349.5C 206.5,348.833 206.167,348.5 205.5,348.5C 205.5,348.167 205.5,347.833 205.5,347.5C 202.36,346.359 199.027,346.192 195.5,347C 194.961,350.934 194.127,354.767 193,358.5C 192.501,353.511 192.334,348.511 192.5,343.5C 198.621,343.09 204.621,343.59 210.5,345C 211.69,349.787 211.69,354.621 210.5,359.5 Z M 205.5,348.5 C 206.167,348.5 206.5,348.833 206.5,349.5C 206.5,351.167 206.5,352.833 206.5,354.5C 204.167,354.5 201.833,354.5 199.5,354.5C 197.692,353.082 197.025,351.082 197.5,348.5C 200.167,348.5 202.833,348.5 205.5,348.5 Z"/></g>
<g><path style="opacity:1" fill="#c03830" d="M 251.5,348.5 C 253.136,349.749 254.303,351.416 255,353.5C 255.333,349.833 255.667,346.167 256,342.5C 257.667,341.167 259.333,341.167 261,342.5C 261.5,348.825 261.666,355.158 261.5,361.5C 257.774,361.823 254.107,361.489 250.5,360.5C 248.807,357.114 247.14,353.78 245.5,350.5C 245.217,349.711 244.717,349.044 244,348.5C 243.501,352.821 243.334,357.154 243.5,361.5C 241.25,361.819 239.25,361.319 237.5,360C 238.554,358.612 238.72,357.112 238,355.5C 237.315,358.057 235.815,359.891 233.5,361C 228.167,361.667 222.833,361.667 217.5,361C 216.058,360.623 215.058,359.79 214.5,358.5C 217.781,359.852 221.281,360.519 225,360.5C 228.542,359.887 232.042,359.22 235.5,358.5C 236.702,354.952 237.369,351.285 237.5,347.5C 238.072,345.881 238.405,344.215 238.5,342.5C 245.457,339.566 249.79,341.566 251.5,348.5 Z"/></g>
<g><path style="opacity:1" fill="#eaadab" d="M 245.5,350.5 C 244.833,354.167 244.167,357.833 243.5,361.5C 243.334,357.154 243.501,352.821 244,348.5C 244.717,349.044 245.217,349.711 245.5,350.5 Z"/></g>
<g><path style="opacity:1" fill="#cf0303" d="M 251.5,348.5 C 251.296,352.281 252.963,354.614 256.5,355.5C 256.335,351.818 256.501,348.152 257,344.5C 258.011,343.663 259.178,343.33 260.5,343.5C 260.5,349.167 260.5,354.833 260.5,360.5C 257.813,360.664 255.146,360.497 252.5,360C 251.016,355.7 248.849,351.866 246,348.5C 244.989,347.663 243.822,347.33 242.5,347.5C 242.5,351.833 242.5,356.167 242.5,360.5C 241.5,360.5 240.5,360.5 239.5,360.5C 239.334,355.156 239.501,349.823 240,344.5C 242.401,343.398 244.901,343.231 247.5,344C 248.283,346.118 249.616,347.618 251.5,348.5 Z"/></g>
<g><path style="opacity:1" fill="#cd110a" d="M 285.5,343.5 C 291.833,343.5 298.167,343.5 304.5,343.5C 304.5,344.833 304.5,346.167 304.5,347.5C 302.265,347.205 300.265,347.539 298.5,348.5C 296.262,347.463 293.929,347.297 291.5,348C 293.677,349.202 296.011,349.702 298.5,349.5C 299.167,349.5 299.833,349.5 300.5,349.5C 305.119,350.788 306.452,354.121 304.5,359.5C 298.537,360.496 292.537,360.829 286.5,360.5C 286.5,359.167 286.5,357.833 286.5,356.5C 289.388,357.01 291.721,356.344 293.5,354.5C 294.239,354.631 294.906,354.464 295.5,354C 292.203,353.796 289.203,352.963 286.5,351.5C 285.612,348.946 285.279,346.279 285.5,343.5 Z"/></g>
<g><path style="opacity:1" fill="#c43027" d="M 236.5,345.5 C 234.821,345.108 233.154,344.608 231.5,344C 217.856,339.821 212.189,344.654 214.5,358.5C 213.732,357.737 213.232,356.737 213,355.5C 212.8,357.32 211.966,358.653 210.5,359.5C 211.69,354.621 211.69,349.787 210.5,345C 204.621,343.59 198.621,343.09 192.5,343.5C 192.334,348.511 192.501,353.511 193,358.5C 194.127,354.767 194.961,350.934 195.5,347C 199.027,346.192 202.36,346.359 205.5,347.5C 202.5,347.5 199.5,347.5 196.5,347.5C 196.5,350.167 196.5,352.833 196.5,355.5C 197.791,355.737 198.791,355.404 199.5,354.5C 201.833,354.5 204.167,354.5 206.5,354.5C 206.5,352.833 206.5,351.167 206.5,349.5C 207.306,350.997 207.972,352.664 208.5,354.5C 204.978,355.958 201.311,356.958 197.5,357.5C 196.914,357.291 196.414,356.957 196,356.5C 195.544,357.744 196.044,358.577 197.5,359C 196.167,359.333 194.833,359.667 193.5,360C 199.157,360.499 204.824,360.666 210.5,360.5C 204.355,361.49 198.022,361.823 191.5,361.5C 191.5,355.167 191.5,348.833 191.5,342.5C 197.737,341.114 204.071,341.281 210.5,343C 211.893,344.171 212.727,345.671 213,347.5C 214.26,344.572 216.427,342.739 219.5,342C 224.989,341.068 230.323,341.568 235.5,343.5C 236.298,343.957 236.631,344.624 236.5,345.5 Z M 205.5,348.5 C 206.167,348.5 206.5,348.833 206.5,349.5C 206.5,351.167 206.5,352.833 206.5,354.5C 204.167,354.5 201.833,354.5 199.5,354.5C 197.692,353.082 197.025,351.082 197.5,348.5C 200.167,348.5 202.833,348.5 205.5,348.5 Z"/></g>
<g><path style="opacity:1" fill="#f6a89d" d="M 205.5,347.5 C 205.5,347.833 205.5,348.167 205.5,348.5C 202.833,348.5 200.167,348.5 197.5,348.5C 197.025,351.082 197.692,353.082 199.5,354.5C 198.791,355.404 197.791,355.737 196.5,355.5C 196.5,352.833 196.5,350.167 196.5,347.5C 199.5,347.5 202.5,347.5 205.5,347.5 Z"/></g>
<g><path style="opacity:1" fill="#cc2f23" d="M 165.5,342.5 C 165.5,348.833 165.5,355.167 165.5,361.5C 163.167,361.5 160.833,361.5 158.5,361.5C 158.334,355.158 158.5,348.825 159,342.5C 161.274,341.189 163.44,341.189 165.5,342.5 Z"/></g>
<g><path style="opacity:1" fill="#cd0606" d="M 277.5,347.5 C 274.696,346.362 271.696,346.195 268.5,347C 268.088,349.462 268.088,351.795 268.5,354C 269.031,355.718 269.698,355.885 270.5,354.5C 271.167,354.5 271.833,354.5 272.5,354.5C 273.705,355.686 275.039,355.686 276.5,354.5C 278.343,355.283 280.343,355.95 282.5,356.5C 283.429,357.689 283.762,359.022 283.5,360.5C 276.833,360.5 270.167,360.5 263.5,360.5C 263.5,354.5 263.5,348.5 263.5,342.5C 269.509,342.334 275.509,342.501 281.5,343C 283.192,344.401 283.859,346.234 283.5,348.5C 281.435,348.483 279.435,348.15 277.5,347.5 Z"/></g>
<g><path style="opacity:1" fill="#c13129" d="M 337.5,352.5 C 339.019,355.021 340.686,357.521 342.5,360C 342.167,360.333 341.833,360.667 341.5,361C 335.804,361.83 330.137,361.663 324.5,360.5C 324.145,359.478 323.478,358.811 322.5,358.5C 322.592,356.152 323.592,354.486 325.5,353.5C 325.389,354.117 325.056,354.617 324.5,355C 331.98,356.434 333.147,354.601 328,349.5C 327.617,350.056 327.117,350.389 326.5,350.5C 326.094,348.891 326.094,347.557 326.5,346.5C 328.323,347.747 330.323,348.414 332.5,348.5C 332.5,347.167 332.5,345.833 332.5,344.5C 330.266,344.62 328.099,344.287 326,343.5C 324.158,345.215 322.325,346.882 320.5,348.5C 321.954,341.95 325.954,339.784 332.5,342C 334.69,345.278 336.356,348.778 337.5,352.5 Z"/></g>
<g><path style="opacity:1" fill="#d00403" d="M 337.5,352.5 C 337.833,355.167 338.167,357.833 338.5,360.5C 334.167,360.5 329.833,360.5 325.5,360.5C 325.67,359.178 325.337,358.011 324.5,357C 327.482,356.502 330.482,356.335 333.5,356.5C 333.414,354.323 332.747,352.323 331.5,350.5C 332.325,349.614 333.325,349.281 334.5,349.5C 334.5,350.5 334.5,351.5 334.5,352.5C 335.5,352.5 336.5,352.5 337.5,352.5 Z"/></g>
</svg>
